<?xml version="1.0" encoding="utf-8"?>
<!-- Generator: Adobe Illustrator 17.0.0, SVG Export Plug-In . SVG Version: 6.00 Build 0)  -->
<!DOCTYPE svg PUBLIC "-//W3C//DTD SVG 1.1//EN" "http://www.w3.org/Graphics/SVG/1.1/DTD/svg11.dtd">
<svg version="1.1" id="Layer_1" xmlns="http://www.w3.org/2000/svg" xmlns:xlink="http://www.w3.org/1999/xlink" x="0px" y="0px"
	 width="34.219px" height="41.445px" viewBox="0 0 34.219 41.445" enable-background="new 0 0 34.219 41.445" xml:space="preserve">
<g>
	<path fill="#555555" d="M26.055,40.546l-0.234-5.195c-0.834,0.886-1.706,1.699-2.618,2.441c-0.912,0.742-1.914,1.387-3.008,1.934
		s-2.285,0.97-3.574,1.27c-1.289,0.299-2.702,0.449-4.238,0.449c-2.031,0-3.815-0.3-5.352-0.898c-1.537-0.599-2.826-1.432-3.867-2.5
		c-1.042-1.067-1.83-2.356-2.363-3.867C0.267,32.669,0,31.002,0,29.179c0-1.875,0.396-3.606,1.191-5.195
		c0.794-1.588,2.005-2.955,3.633-4.102c1.627-1.146,3.658-2.044,6.094-2.695c2.435-0.65,5.293-0.977,8.574-0.977h5.196v-2.383
		c0-1.016-0.144-1.934-0.43-2.754c-0.287-0.82-0.749-1.517-1.387-2.09c-0.639-0.572-1.465-1.016-2.48-1.328s-2.266-0.469-3.75-0.469
		c-2.344,0-4.655,0.268-6.934,0.801c-2.279,0.534-4.486,1.283-6.621,2.246V2.617c1.9-0.755,4.095-1.38,6.582-1.875
		C12.154,0.248,14.739,0,17.422,0C20.364,0,22.891,0.28,25,0.84c2.109,0.561,3.848,1.4,5.215,2.52
		c1.367,1.12,2.376,2.52,3.027,4.199c0.65,1.68,0.977,3.64,0.977,5.879v27.109H26.055z M24.688,23.008h-5.821
		c-1.615,0-2.982,0.156-4.102,0.469c-1.12,0.313-2.031,0.742-2.734,1.289s-1.218,1.179-1.543,1.894
		C10.162,27.376,10,28.138,10,28.945c0,1.615,0.521,2.846,1.563,3.691c1.041,0.847,2.461,1.27,4.258,1.27
		c1.328,0,2.708-0.481,4.141-1.445c1.432-0.963,3.008-2.344,4.727-4.141V23.008z"/>
</g>
</svg>
